<svg xmlns="http://www.w3.org/2000/svg" width="40" height="40" viewBox="0 0 40 40">
  <g id="ic_facebook" transform="translate(-634 -5179)">
    <circle id="Ellipse_675" data-name="Ellipse 675" cx="20" cy="20" r="20" transform="translate(634 5179)" fill="#3b5998"/>
    <path id="ic_facebook-2" data-name="ic_facebook" d="M478.244,5848.529v-1.724a3.5,3.5,0,0,1,.039-.6,1.134,1.134,0,0,1,.176-.418.715.715,0,0,1,.443-.286,3.383,3.383,0,0,1,.813-.079h1.849v-3.446h-2.956a5.027,5.027,0,0,0-3.683,1.134,4.569,4.569,0,0,0-1.121,3.345v2.075H471.59v3.447H473.8v10h4.441v-10H481.2l.39-3.447Z" transform="translate(177.41 -652.975)" fill="#fff"/>
  </g>
</svg>
