<svg xmlns="http://www.w3.org/2000/svg" width="40" height="40" viewBox="0 0 40 40">
  <g id="ic_instagram" transform="translate(-738 -5179)">
    <circle id="Ellipse_675_copy_2" data-name="Ellipse 675 copy 2" cx="20" cy="20" r="20" transform="translate(738 5179)" fill="#c32aa3"/>
    <path id="ic_instagram-2" data-name="ic_instagram" d="M577.794,5862.359h-.2c-1.568,0-3.017-.036-4.426-.122a5.915,5.915,0,0,1-3.411-1.291,5.475,5.475,0,0,1-1.84-2.968,13.177,13.177,0,0,1-.3-3.142c-.011-.73-.02-1.6-.022-2.475s.012-1.749.022-2.479a13.174,13.174,0,0,1,.3-3.141,5.474,5.474,0,0,1,1.84-2.969,5.919,5.919,0,0,1,3.411-1.291c1.409-.085,2.859-.125,4.429-.122s3.018.037,4.427.122a5.921,5.921,0,0,1,3.411,1.291,5.467,5.467,0,0,1,1.839,2.969,13.136,13.136,0,0,1,.3,3.141c.01.73.021,1.6.023,2.476v0c0,.879-.013,1.745-.023,2.475a13.146,13.146,0,0,1-.3,3.142,5.468,5.468,0,0,1-1.839,2.968,5.917,5.917,0,0,1-3.411,1.291C580.675,5862.319,579.289,5862.359,577.794,5862.359Zm-.2-1.563c1.542,0,2.958-.035,4.334-.119a4.307,4.307,0,0,0,2.518-.941,3.941,3.941,0,0,0,1.313-2.144,11.984,11.984,0,0,0,.254-2.776c.01-.726.02-1.584.022-2.456s-.012-1.73-.022-2.456a11.989,11.989,0,0,0-.254-2.776,3.945,3.945,0,0,0-1.312-2.144,4.3,4.3,0,0,0-2.518-.941c-1.376-.085-2.792-.123-4.331-.12s-2.958.035-4.334.12a4.3,4.3,0,0,0-2.518.941,3.949,3.949,0,0,0-1.313,2.144,12,12,0,0,0-.253,2.776c-.01.727-.02,1.585-.022,2.458s.013,1.728.022,2.454a12,12,0,0,0,.253,2.776,3.945,3.945,0,0,0,1.313,2.144,4.3,4.3,0,0,0,2.518.941C574.64,5860.761,576.056,5860.8,577.595,5860.8Zm-.038-3.555a4.882,4.882,0,1,1,4.885-4.882A4.888,4.888,0,0,1,577.557,5857.241Zm0-8.2a3.321,3.321,0,1,0,3.321,3.321A3.326,3.326,0,0,0,577.557,5849.038Zm5.431-3.124a1.172,1.172,0,1,0,1.172,1.172A1.174,1.174,0,0,0,582.988,5845.914Z" transform="translate(180.405 -653.359)" fill="#fff"/>
  </g>
</svg>
