<svg xmlns="http://www.w3.org/2000/svg" width="40" height="40" viewBox="0 0 40 40">
  <g id="ic_pintrest" transform="translate(-788 -5179)">
    <circle id="Ellipse_675_copy_3" data-name="Ellipse 675 copy 3" cx="20" cy="20" r="20" transform="translate(788 5179)" fill="#cb2027"/>
    <path id="ic_pintrest-2" data-name="ic_pintrest" d="M621.927,5852.845c.026-.062.29-1.025.308-1.09a6.42,6.42,0,0,1-.518-4.078c.378-2.295,2.937-3.423,5.353-3.423v0c3.025,0,5.29,1.6,5.293,4.354,0,2.156-1.366,5-3.7,5h0a3.435,3.435,0,0,1-2.164-.711,1.511,1.511,0,0,1-.229-1.444,18.291,18.291,0,0,0,1-3.755,1.454,1.454,0,0,0-1.563-1.56,2.211,2.211,0,0,0-2.029,1.448,3.711,3.711,0,0,0,.024,2.839c.15.4-.664,3.007-.925,3.857-.648,2.109-1.535,4.777-1.346,6.263l.183,1.43.92-1.145c1.272-1.583,2.588-5.677,2.939-6.673,1.037,1.275,3.2,1.312,3.447,1.312a6.877,6.877,0,0,0,6.5-6.975c-.087-3.56-2.829-6.52-7.756-6.52v0c-4.687,0-7.422,2.376-8.092,5.378C618.957,5850.145,620.321,5852.264,621.927,5852.845Z" transform="translate(180.58 -652.976)" fill="#fff"/>
  </g>
</svg>
