<svg xmlns="http://www.w3.org/2000/svg" width="40" height="40" viewBox="0 0 40 40">
  <g id="ic_youtube" transform="translate(-838 -5179)">
    <circle id="Ellipse_675_copy_4" data-name="Ellipse 675 copy 4" cx="20" cy="20" r="20" transform="translate(838 5179)" fill="#bb0611"/>
    <g id="ic_" transform="translate(847 5191)">
      <path id="Subtraction_1" data-name="Subtraction 1" d="M11,16c-.069,0-6.887-.005-8.608-.49A2.81,2.81,0,0,1,.453,13.5,31.381,31.381,0,0,1,0,8,31.5,31.5,0,0,1,.453,2.5,2.875,2.875,0,0,1,2.392.472C4.094.005,10.93,0,11,0S17.9.005,19.608.49A2.814,2.814,0,0,1,21.547,2.5,29.974,29.974,0,0,1,22,8.02a31.482,31.482,0,0,1-.453,5.5,2.817,2.817,0,0,1-1.939,2.015C17.906,16,11.068,16,11,16ZM8.807,4.574h0v6.853L14.534,8,8.807,4.574Z" transform="translate(0 0)" fill="#fff"/>
    </g>
  </g>
</svg>
