<svg xmlns="http://www.w3.org/2000/svg" width="163.399" height="56" viewBox="0 0 163.399 56">
  <g id="logo_iCases" transform="translate(-5 -3.874)">
    <path id="Path_19572" data-name="Path 19572" d="M5,9.048V54.7a5.173,5.173,0,0,0,5.174,5.174H96.643a5.173,5.173,0,0,0,5.174-5.174V9.048a5.173,5.173,0,0,0-5.174-5.174H10.174A5.173,5.173,0,0,0,5,9.048Zm13.265,40.1a2.541,2.541,0,0,1-2.8,2.527,2.64,2.64,0,0,1-2.278-2.672V44.193a2.64,2.64,0,0,1,2.278-2.672,2.54,2.54,0,0,1,2.8,2.527Z"/>
    <path id="Path_19573" data-name="Path 19573" d="M49.346,16.5h0a3.914,3.914,0,0,1,3.775-4.039h.528A3.914,3.914,0,0,1,57.424,16.5h0a3.914,3.914,0,0,1-3.775,4.039h-.528A3.913,3.913,0,0,1,49.346,16.5Zm0,38.862V23.2h8.307V55.365Zm13.9-14.815V25.858q0-15.727,12.868-15.727a14.747,14.747,0,0,1,4.82.727,9.754,9.754,0,0,1,5.892,5.165,15.55,15.55,0,0,1,1.331,4.067,26.6,26.6,0,0,1,.406,4.832v3.821H79.734V24.651q0-1.208-.049-2.083a16,16,0,0,0-.259-2,6.864,6.864,0,0,0-.567-1.824,3.262,3.262,0,0,0-1.06-1.2,2.869,2.869,0,0,0-1.688-.493q-3.9,0-3.9,6.557V42.769q0,6.533,3.9,6.533a2.915,2.915,0,0,0,1.947-.666,3.715,3.715,0,0,0,1.134-1.886,14.357,14.357,0,0,0,.468-2.391,25.937,25.937,0,0,0,.123-2.674v-4.56H88.56v3.747a31.171,31.171,0,0,1-.419,4.683,17.884,17.884,0,0,1-1.257,4.166,11.274,11.274,0,0,1-2.256,3.414,9.984,9.984,0,0,1-3.538,2.243,13.57,13.57,0,0,1-4.98.85,14.689,14.689,0,0,1-5.115-.826,10.379,10.379,0,0,1-3.673-2.219,11.228,11.228,0,0,1-2.379-3.427,17,17,0,0,1-1.319-4.277A29.525,29.525,0,0,1,63.243,40.55ZM105.4,55.365l-.814-3.328a5.175,5.175,0,0,1-2.342,3.143,8.265,8.265,0,0,1-4.043.9,6.655,6.655,0,0,1-3.106-.69,5.333,5.333,0,0,1-2.083-1.861A8.8,8.8,0,0,1,91.9,51.014a10.931,10.931,0,0,1-.357-2.823,13.22,13.22,0,0,1,.345-3.106,12.568,12.568,0,0,1,.875-2.527,8.477,8.477,0,0,1,1.479-2.108,16.456,16.456,0,0,1,1.849-1.713,16.179,16.179,0,0,1,2.3-1.454q1.405-.752,2.514-1.257t2.785-1.2V32.119a5.913,5.913,0,0,0-.419-2.539,1.472,1.472,0,0,0-1.43-.838,2.01,2.01,0,0,0-1.121.283,1.494,1.494,0,0,0-.6.85A5.63,5.63,0,0,0,99.9,30.9a11.778,11.778,0,0,0-.049,1.22v1.824H91.787q0-5.546,2.785-8.517t8.085-2.97a9.051,9.051,0,0,1,6.484,2.687,8.574,8.574,0,0,1,2.785,6.385V46.811a38.067,38.067,0,0,0,1.06,8.554H105.4Zm-1.676-7.272V40.181q-4.092,3.3-4.092,7.247a3.487,3.487,0,0,0,.382,1.688,1.352,1.352,0,0,0,1.294.7,1.846,1.846,0,0,0,1.023-.333,3.862,3.862,0,0,0,.727-.579Q103.276,48.661,103.72,48.093Z" transform="translate(-14.154 -1.997)" fill="#fff"/>
    <path id="Path_19574" data-name="Path 19574" d="M150.181,53.379l6.36-2.268q.246.739.394,1.147t.505,1.183a5.988,5.988,0,0,0,.69,1.2,3.8,3.8,0,0,0,.863.777,1.971,1.971,0,0,0,1.121.357q1.553,0,1.553-1.824a3.393,3.393,0,0,0-.308-1.368,8.248,8.248,0,0,0-.641-1.208,9.025,9.025,0,0,0-1.159-1.319q-.826-.814-1.27-1.208t-1.553-1.331l-1.356-1.159a23.846,23.846,0,0,1-4.141-4.511,8.59,8.59,0,0,1-1.5-4.93,8.1,8.1,0,0,1,.875-3.784,7.446,7.446,0,0,1,2.354-2.724,11.554,11.554,0,0,1,3.316-1.59,13.273,13.273,0,0,1,3.858-.555,8.13,8.13,0,0,1,3.451.764,9.767,9.767,0,0,1,2.9,2.034,14.034,14.034,0,0,1,2.157,2.859,14.72,14.72,0,0,1,1.405,3.34L164.082,39.3q-.3-.739-.493-1.22a12.65,12.65,0,0,0-.628-1.257,7.436,7.436,0,0,0-.838-1.245,4.175,4.175,0,0,0-1-.826,2.35,2.35,0,0,0-1.232-.357,1.607,1.607,0,0,0-1.343.616,2.224,2.224,0,0,0-.481,1.405,3.869,3.869,0,0,0,1.2,2.428,31.36,31.36,0,0,0,3.291,3.094l1.528,1.356q1.232,1.109,2.132,2.083a24.813,24.813,0,0,1,1.8,2.207,10.116,10.116,0,0,1,1.381,2.589,8.064,8.064,0,0,1,.481,2.712,8.379,8.379,0,0,1-2.748,6.434,9.439,9.439,0,0,1-6.644,2.539,9.681,9.681,0,0,1-6.508-2.342A12.15,12.15,0,0,1,150.181,53.379Zm22.358-.592V39.106q0-5.127,2.441-8t7.445-2.872q5.029,0,7.457,2.859t2.429,8.011v6.656H180.848v7.124q0,2.711,1.577,2.712,1.725,0,1.726-2.908V49.164h8.16v3.623a8.265,8.265,0,0,1-2.909,6.545,10.875,10.875,0,0,1-13.953-.012A8.272,8.272,0,0,1,172.54,52.787ZM180.847,41.4h3.229V36.961q0-2.441-1.652-2.441-1.578,0-1.577,2.441Zm13.879,11.98,6.36-2.268q.245.739.394,1.147t.505,1.183a6.021,6.021,0,0,0,.69,1.2,3.8,3.8,0,0,0,.864.777,1.969,1.969,0,0,0,1.121.357q1.553,0,1.553-1.824a3.4,3.4,0,0,0-.308-1.368,8.379,8.379,0,0,0-.641-1.208,9.038,9.038,0,0,0-1.159-1.319q-.825-.814-1.269-1.208t-1.553-1.331l-1.356-1.159a23.824,23.824,0,0,1-4.141-4.511,8.59,8.59,0,0,1-1.5-4.93,8.1,8.1,0,0,1,.876-3.784,7.438,7.438,0,0,1,2.354-2.724,11.558,11.558,0,0,1,3.316-1.59,13.266,13.266,0,0,1,3.858-.555,8.133,8.133,0,0,1,3.451.764,9.779,9.779,0,0,1,2.9,2.034,14.056,14.056,0,0,1,2.156,2.859,14.783,14.783,0,0,1,1.405,3.34L208.63,39.3q-.3-.739-.493-1.22a12.682,12.682,0,0,0-.629-1.257,7.276,7.276,0,0,0-.838-1.245,4.149,4.149,0,0,0-1-.826,2.35,2.35,0,0,0-1.232-.357,1.606,1.606,0,0,0-1.343.616,2.22,2.22,0,0,0-.481,1.405,3.871,3.871,0,0,0,1.195,2.428,31.567,31.567,0,0,0,3.291,3.094l1.528,1.356q1.232,1.109,2.132,2.083a24.817,24.817,0,0,1,1.8,2.207,10.158,10.158,0,0,1,1.381,2.589,8.1,8.1,0,0,1,.48,2.712,8.379,8.379,0,0,1-2.748,6.434,9.441,9.441,0,0,1-6.644,2.539,9.681,9.681,0,0,1-6.508-2.342A12.151,12.151,0,0,1,194.726,53.379Z" transform="translate(-46.196 -7.775)"/>
  </g>
</svg>
